<svg xmlns="http://www.w3.org/2000/svg" version="1.1" xmlns:xlink="http://www.w3.org/1999/xlink" xmlns:svgjs="http://svgjs.com/svgjs" width="1440" height="1000" preserveAspectRatio="none" viewBox="0 0 1440 1000"><g mask="url(&quot;#SvgjsMask1064&quot;)" fill="none"><rect width="1440" height="1000" x="0" y="0" fill="rgba(249, 153, 165, 1)"></rect><path d="M790 283L789 -157" stroke-width="10" stroke="url(#SvgjsLinearGradient1065)" stroke-linecap="round" class="Up"></path><path d="M579 6L578 -333" stroke-width="8" stroke="url(#SvgjsLinearGradient1065)" stroke-linecap="round" class="Up"></path><path d="M836 467L835 -102" stroke-width="10" stroke="url(#SvgjsLinearGradient1065)" stroke-linecap="round" class="Up"></path><path d="M1320 108L1319 618" stroke-width="6" stroke="url(#SvgjsLinearGradient1066)" stroke-linecap="round" class="Down"></path><path d="M738 196L737 782" stroke-width="10" stroke="url(#SvgjsLinearGradient1066)" stroke-linecap="round" class="Down"></path><path d="M609 503L608 64" stroke-width="6" stroke="url(#SvgjsLinearGradient1065)" stroke-linecap="round" class="Up"></path><path d="M507 860L506 1378" stroke-width="8" stroke="url(#SvgjsLinearGradient1065)" stroke-linecap="round" class="Up"></path><path d="M471 562L470 -63" stroke-width="6" stroke="url(#SvgjsLinearGradient1066)" stroke-linecap="round" class="Down"></path><path d="M518 0L517 -443" stroke-width="6" stroke="url(#SvgjsLinearGradient1065)" stroke-linecap="round" class="Up"></path><path d="M85 52L84 519" stroke-width="6" stroke="url(#SvgjsLinearGradient1065)" stroke-linecap="round" class="Up"></path><path d="M375 386L374 -271" stroke-width="8" stroke="url(#SvgjsLinearGradient1066)" stroke-linecap="round" class="Down"></path><path d="M394 385L393 -203" stroke-width="8" stroke="url(#SvgjsLinearGradient1066)" stroke-linecap="round" class="Down"></path><path d="M469 833L468 1382" stroke-width="8" stroke="url(#SvgjsLinearGradient1066)" stroke-linecap="round" class="Down"></path><path d="M1075 977L1074 1460" stroke-width="6" stroke="url(#SvgjsLinearGradient1065)" stroke-linecap="round" class="Up"></path><path d="M786 415L785 -61" stroke-width="10" stroke="url(#SvgjsLinearGradient1065)" stroke-linecap="round" class="Up"></path><path d="M82 375L81 887" stroke-width="6" stroke="url(#SvgjsLinearGradient1065)" stroke-linecap="round" class="Up"></path><path d="M279 944L278 307" stroke-width="8" stroke="url(#SvgjsLinearGradient1065)" stroke-linecap="round" class="Up"></path><path d="M245 787L244 415" stroke-width="10" stroke="url(#SvgjsLinearGradient1065)" stroke-linecap="round" class="Up"></path><path d="M971 753L970 303" stroke-width="10" stroke="url(#SvgjsLinearGradient1065)" stroke-linecap="round" class="Up"></path><path d="M1011 599L1010 1331" stroke-width="6" stroke="url(#SvgjsLinearGradient1066)" stroke-linecap="round" class="Down"></path><path d="M1086 652L1085 347" stroke-width="10" stroke="url(#SvgjsLinearGradient1065)" stroke-linecap="round" class="Up"></path><path d="M203 411L202 1117" stroke-width="8" stroke="url(#SvgjsLinearGradient1066)" stroke-linecap="round" class="Down"></path><path d="M841 365L840 829" stroke-width="6" stroke="url(#SvgjsLinearGradient1065)" stroke-linecap="round" class="Up"></path><path d="M279 985L278 1618" stroke-width="8" stroke="url(#SvgjsLinearGradient1066)" stroke-linecap="round" class="Down"></path><path d="M93 632L92 1127" stroke-width="8" stroke="url(#SvgjsLinearGradient1065)" stroke-linecap="round" class="Up"></path><path d="M48 643L47 1144" stroke-width="10" stroke="url(#SvgjsLinearGradient1065)" stroke-linecap="round" class="Up"></path><path d="M1401 866L1400 171" stroke-width="6" stroke="url(#SvgjsLinearGradient1066)" stroke-linecap="round" class="Down"></path><path d="M99 710L98 416" stroke-width="8" stroke="url(#SvgjsLinearGradient1066)" stroke-linecap="round" class="Down"></path><path d="M324 97L323 -556" stroke-width="6" stroke="url(#SvgjsLinearGradient1065)" stroke-linecap="round" class="Up"></path><path d="M1388 463L1387 -231" stroke-width="10" stroke="url(#SvgjsLinearGradient1065)" stroke-linecap="round" class="Up"></path><path d="M1171 391L1170 652" stroke-width="6" stroke="url(#SvgjsLinearGradient1065)" stroke-linecap="round" class="Up"></path><path d="M1204 100L1203 -335" stroke-width="6" stroke="url(#SvgjsLinearGradient1066)" stroke-linecap="round" class="Down"></path><path d="M430 112L429 530" stroke-width="8" stroke="url(#SvgjsLinearGradient1065)" stroke-linecap="round" class="Up"></path><path d="M916 87L915 492" stroke-width="10" stroke="url(#SvgjsLinearGradient1066)" stroke-linecap="round" class="Down"></path><path d="M1211 665L1210 986" stroke-width="8" stroke="url(#SvgjsLinearGradient1065)" stroke-linecap="round" class="Up"></path><path d="M725 349L724 -360" stroke-width="8" stroke="url(#SvgjsLinearGradient1066)" stroke-linecap="round" class="Down"></path></g><defs><mask id="SvgjsMask1064"><rect width="1440" height="1000" fill="#ffffff"></rect></mask><linearGradient x1="0%" y1="100%" x2="0%" y2="0%" id="SvgjsLinearGradient1065"><stop stop-color="rgba(255, 255, 255, 0)" offset="0"></stop><stop stop-color="rgba(255, 255, 255, 1)" offset="1"></stop></linearGradient><linearGradient x1="0%" y1="0%" x2="0%" y2="100%" id="SvgjsLinearGradient1066"><stop stop-color="rgba(255, 255, 255, 0)" offset="0"></stop><stop stop-color="rgba(255, 255, 255, 1)" offset="1"></stop></linearGradient></defs></svg>